<?xml version="1.0" encoding="UTF-8"?>
<svg version="1.1" xmlns="http://www.w3.org/2000/svg" width="512" height="512">
<path d="M0 0 C56.76 0 113.52 0 172 0 C172.33 6.93 172.66 13.86 173 21 C175.62205232 36.1496356 182.66414396 48.74819023 195.1875 57.6875 C208.85613665 67.00349987 223.74841053 68.32003619 239.9375 68.265625 C241.22003662 68.26753845 242.50257324 68.2694519 243.82397461 68.27142334 C246.51648883 68.2743428 249.2088688 68.27018108 251.90136719 68.26074219 C255.3132751 68.2493495 258.7248681 68.25592628 262.13676453 68.26788712 C265.44536671 68.27694549 268.75388894 68.27056121 272.0625 68.265625 C273.26704834 68.26967346 274.47159668 68.27372192 275.71264648 68.27789307 C294.85074241 68.17372975 310.81782119 64.14445841 325 51 C338.16305061 36.10373632 339.06539909 19.62661913 340 0 C396.76 0 453.52 0 512 0 C512.16121214 44.44529051 512.16121214 44.44529051 512.1953125 63.09179688 C512.2190329 75.95896798 512.24689543 88.82603419 512.30175781 101.69311523 C512.3416974 111.06478684 512.36744986 120.43637323 512.37635398 129.80812758 C512.38155666 134.76782548 512.39373589 139.72727961 512.42292023 144.68689919 C512.45020192 149.36134203 512.45841934 154.03544222 512.45243073 158.70995712 C512.45352528 160.41950408 512.46140288 162.12906326 512.4768219 163.83854103 C512.55719347 173.21422685 512.16857695 181.38347737 508 190 C507.60137882 190.82492856 507.20275764 191.64985712 506.79205704 192.49978352 C500.17965912 205.59648331 489.59898646 213.02599272 476.078125 218.0546875 C470.59301911 219.73919971 465.42749416 220.12582479 459.70470238 220.13142776 C458.98888077 220.1334804 458.27305917 220.13553303 457.535546 220.13764787 C455.13650342 220.14330309 452.73751852 220.14186245 450.33847046 220.14044189 C448.60117802 220.14302638 446.86388617 220.14603977 445.12659514 220.1494453 C440.35185147 220.15750878 435.57712284 220.15930451 430.80237317 220.16004276 C425.65291265 220.16189445 420.50345992 220.16944238 415.35400391 220.17617798 C404.09358308 220.18975722 392.83316582 220.19578539 381.57273817 220.20018864 C374.54088865 220.20295176 367.50904051 220.20718925 360.47719193 220.21169281 C341.00581384 220.22388496 321.53443686 220.23418437 302.06305504 220.2375679 C300.81695256 220.23778747 299.57085008 220.23800703 298.28698692 220.23823325 C297.03791299 220.23845153 295.78883905 220.23866981 294.50191438 220.2388947 C291.97084006 220.23933817 289.43976573 220.23978473 286.90869141 220.24023438 C285.65319271 220.2404558 284.39769401 220.24067723 283.10414989 220.24090537 C262.76246281 220.24485304 242.42081156 220.26230637 222.07913832 220.2855939 C201.19173979 220.30931306 180.30435923 220.32177001 159.41694701 220.32293582 C147.69062767 220.32385226 135.96435502 220.3295969 124.23804855 220.34775543 C114.25244369 220.36316401 104.26689994 220.36827238 94.28128545 220.36001733 C89.18819091 220.35611353 84.09521941 220.35702731 79.00214005 220.37107468 C74.33491308 220.38382955 69.66790142 220.3826021 65.00067468 220.37048396 C63.31693493 220.36852972 61.63317985 220.37159272 59.94946162 220.38032833 C43.21828441 220.4616022 27.34904959 217.81727853 14.734375 205.828125 C5.7805693 196.39032981 -0.12942461 184.81834621 -0.12025452 171.72344971 C-0.12110894 170.98907614 -0.12196337 170.25470256 -0.12284368 169.49807525 C-0.12449109 167.03677797 -0.11898919 164.57554881 -0.11352539 162.11425781 C-0.11324333 160.35014345 -0.11340162 158.58602897 -0.1139679 156.82191467 C-0.11425515 152.03097176 -0.10837004 147.24005381 -0.10139394 142.44911671 C-0.09514843 137.44294676 -0.09455565 132.43677627 -0.09336853 127.43060303 C-0.09025876 117.94987626 -0.08205012 108.46916101 -0.07201904 98.98843932 C-0.05875849 86.17771854 -0.05335514 73.36699461 -0.04751682 60.55626869 C-0.03811001 40.37083717 -0.01818871 20.18542994 0 0 Z " fill="#000000" transform="translate(0,248)"/>
<path d="M0 0 C1.2114267 -0.0087616 2.42285339 -0.01752319 3.67098999 -0.02655029 C6.95645262 -0.04463503 10.24088795 -0.04061116 13.52633286 -0.02465487 C16.98803373 -0.01186712 20.44967298 -0.02377127 23.91137695 -0.03158569 C29.72131405 -0.04064528 35.53093186 -0.02879227 41.34082031 -0.00488281 C48.02802657 0.0223218 54.71447024 0.01350497 61.40165806 -0.01401484 C67.1753539 -0.03681114 72.94882211 -0.03985506 78.72254848 -0.02682149 C82.15684416 -0.01908426 85.59078313 -0.01782484 89.02505493 -0.03450394 C92.85836358 -0.04729002 96.6902351 -0.02772349 100.5234375 0 C101.6396347 -0.01012115 102.75583191 -0.02024231 103.90585327 -0.03067017 C115.45525987 0.12304523 126.08711796 4.34685016 134.26171875 12.64697266 C145.16716529 26.10340084 144.66948996 40.93897277 144.44921875 57.39697266 C144.43414194 59.3657124 144.42045885 61.33446333 144.40820312 63.30322266 C144.3754413 68.08475323 144.32382513 72.86573689 144.26171875 77.64697266 C145.18052889 77.6414419 145.18052889 77.6414419 146.11790085 77.63579941 C161.06831804 77.54720507 176.01868051 77.48114531 190.9692955 77.43972397 C198.19951597 77.41915704 205.42956049 77.39114988 212.65966797 77.34521484 C218.96633635 77.30516602 225.27287721 77.27949726 231.57966924 77.27061868 C234.91476838 77.26543404 238.24921588 77.25122918 241.5842514 77.22405243 C245.32038094 77.19483014 249.05576595 77.19102467 252.79199219 77.19287109 C253.88028824 77.17848999 254.96858429 77.16410889 256.08985901 77.14929199 C270.20780561 77.22432495 282.20910323 82.8045533 292.51171875 92.33447266 C313.73473735 114.86486407 306.26171875 144.8066656 306.26171875 174.64697266 C137.30171875 174.64697266 -31.65828125 174.64697266 -205.73828125 174.64697266 C-205.73828125 107.27535103 -205.73828125 107.27535103 -191.05078125 91.39697266 C-179.94908679 80.9394771 -167.39758593 77.15967612 -152.49560547 77.30639648 C-151.31396317 77.3059584 -150.13232086 77.30552032 -148.91487122 77.30506897 C-145.04073087 77.30714542 -141.16703275 77.33042307 -137.29296875 77.35400391 C-134.59441368 77.36127997 -131.89585904 77.36401983 -129.19729614 77.36686707 C-122.84038794 77.37615378 -116.48363638 77.40072127 -110.12679684 77.43091553 C-102.88367779 77.46456529 -95.64055085 77.480972 -88.39737296 77.49600184 C-73.51092211 77.52727431 -58.62461742 77.57996834 -43.73828125 77.64697266 C-43.76184692 75.83277832 -43.76184692 75.83277832 -43.78588867 73.98193359 C-43.8406932 69.44196381 -43.87481294 64.90202251 -43.90307617 60.36181641 C-43.91804875 58.40668806 -43.93843406 56.45159262 -43.96459961 54.49658203 C-44.16744794 38.93692168 -43.98530396 25.29095974 -33.73828125 12.64697266 C-24.44985383 3.21592064 -12.92206905 -0.11717129 0 0 Z M-11.73828125 36.64697266 C-11.73828125 50.17697266 -11.73828125 63.70697266 -11.73828125 77.64697266 C29.18171875 77.64697266 70.10171875 77.64697266 112.26171875 77.64697266 C112.26171875 64.11697266 112.26171875 50.58697266 112.26171875 36.64697266 C107.78353079 31.57265593 107.78353079 31.57265593 102.36621094 31.01205444 C101.40734985 30.99795532 100.44848877 30.9838562 99.46057129 30.96932983 C98.4204187 30.97945099 97.38026611 30.98957214 96.30859375 31 C95.20398804 30.9912384 94.09938232 30.98247681 92.96130371 30.97344971 C89.31104215 30.95144836 85.66199257 30.96601252 82.01171875 30.98291016 C79.47493253 30.97954227 76.93814788 30.97468989 74.40136719 30.96841431 C69.08511501 30.96104189 63.76929695 30.97128374 58.453125 30.99511719 C52.3129223 31.0223276 46.17354975 31.01351281 40.03336716 30.98598516 C34.11889504 30.96053399 28.20468017 30.96326227 22.29016113 30.97789383 C19.77673222 30.9812307 17.26328213 30.97713097 14.74987793 30.96549606 C11.23762793 30.95280572 7.72697473 30.97214221 4.21484375 31 C2.65461487 30.98481827 2.65461487 30.98481827 1.06286621 30.96932983 C-0.37542542 30.99047852 -0.37542542 30.99047852 -1.84277344 31.01205444 C-2.67234558 31.01393957 -3.50191772 31.0158247 -4.35662842 31.01776695 C-7.58738952 31.65768375 -7.58738952 31.65768375 -11.73828125 36.64697266 Z " fill="#000000" transform="translate(205.73828125,44.35302734375)"/>
<path d="M0 0 C36.3 0 72.6 0 110 0 C110 24.1025641 110 24.1025641 103 32 C96.49405074 36.54774414 91.39281276 39.10760726 83.39233398 39.19287109 C82.72520889 39.20104858 82.0580838 39.20922607 81.3707428 39.21765137 C79.16253541 39.24246197 76.95439243 39.25901583 74.74609375 39.2734375 C73.98904711 39.27876118 73.23200047 39.28408485 72.45201302 39.28956985 C68.43994282 39.31629077 64.42790352 39.3356635 60.41577148 39.35009766 C57.10917263 39.36339965 53.80319637 39.39118315 50.49682617 39.43212891 C46.49269394 39.48170803 42.48912335 39.50624998 38.48469734 39.51332474 C36.96617564 39.51999825 35.44766453 39.53511758 33.92931938 39.55921555 C23.28838305 39.71837783 15.57330204 38.48287338 7.125 31.6875 C-0.81075694 21.65110151 0 13.27951367 0 0 Z " fill="#000000" transform="translate(201,248)"/>
</svg>
